<svg width="40" height="40" viewBox="0 0 40 40" fill="none" xmlns="http://www.w3.org/2000/svg">
<rect width="40" height="40" rx="8" fill="white"/>
<g clip-path="url(#clip0_62_505)">
<path d="M25.8439 12H14.1561C12.9654 12 12.0001 12.9653 12.0001 14.156V25.8439C12.0001 27.0346 12.9653 27.9999 14.1561 27.9999H19.9205L19.9303 22.2824H18.4449C18.2518 22.2824 18.0952 22.1263 18.0944 21.9333L18.0873 20.0903C18.0865 19.8962 18.2437 19.7385 18.4378 19.7385H19.9205V17.9577C19.9205 15.8911 21.1826 14.7658 23.0262 14.7658H24.5389C24.7325 14.7658 24.8894 14.9227 24.8894 15.1163V16.6703C24.8894 16.8638 24.7326 17.0207 24.5391 17.0208L23.6108 17.0212C22.6082 17.0212 22.4141 17.4977 22.4141 18.1968V19.7385H24.6171C24.827 19.7385 24.9898 19.9218 24.9651 20.1303L24.7467 21.9732C24.7258 22.1496 24.5762 22.2825 24.3986 22.2825H22.4239L22.4141 28H25.844C27.0347 28 27.9999 27.0347 27.9999 25.844V14.156C27.9999 12.9653 27.0346 12 25.8439 12Z" fill="#004D3D"/>
</g>
<defs>
<clipPath id="clip0_62_505">
<rect width="16" height="16" fill="white" transform="translate(12 12)"/>
</clipPath>
</defs>
</svg>
