<svg width="40" height="40" viewBox="0 0 40 40" fill="none" xmlns="http://www.w3.org/2000/svg">
<rect width="40" height="40" rx="8" fill="white"/>
<g clip-path="url(#clip0_62_499)">
<path d="M27.9519 16.7017C27.913 15.8501 27.7777 15.2686 27.58 14.7598C27.3792 14.226 27.0642 13.7424 26.6572 13.3428C26.2577 12.9358 25.774 12.6207 25.2402 12.4198C24.7313 12.2222 24.1499 12.087 23.2983 12.0483C22.4452 12.0093 22.1726 12 20 12C17.8274 12 17.5548 12.0093 16.7017 12.0481C15.8501 12.087 15.2687 12.2223 14.7598 12.42C14.226 12.6208 13.7424 12.9358 13.3428 13.3428C12.9358 13.7423 12.6207 14.2258 12.4198 14.7596C12.2222 15.2686 12.087 15.8501 12.0483 16.7015C12.0093 17.5548 12 17.8273 12 19.9999C12 22.1726 12.0093 22.4452 12.0483 23.2983C12.0872 24.1498 12.2224 24.7313 12.4202 25.2402C12.621 25.7739 12.9359 26.2576 13.3429 26.6571C13.7424 27.0641 14.2261 27.379 14.7599 27.5798C15.2687 27.7777 15.8502 27.9128 16.7018 27.9518C17.5551 27.9907 17.8275 27.9999 20.0001 27.9999C22.1727 27.9999 22.4453 27.9907 23.2985 27.9518C24.15 27.9128 24.7314 27.7777 25.2404 27.5798C26.3149 27.1643 27.1644 26.3148 27.58 25.2402C27.7778 24.7313 27.913 24.1498 27.9519 23.2983C27.9907 22.4451 28 22.1726 28 20C28 17.8273 27.9907 17.5548 27.9519 16.7017ZM26.5118 23.2328C26.4763 24.0128 26.3459 24.4364 26.2365 24.7183C25.9673 25.416 25.4159 25.9674 24.7181 26.2366C24.4363 26.3461 24.0127 26.4764 23.2327 26.512C22.3893 26.5505 22.1362 26.5586 20 26.5586C17.8636 26.5586 17.6107 26.5505 16.7672 26.512C15.9873 26.4764 15.5637 26.3461 15.2817 26.2366C14.9343 26.1083 14.62 25.9038 14.3619 25.6381C14.0962 25.38 13.8917 25.0658 13.7634 24.7183C13.6539 24.4364 13.5236 24.0128 13.488 23.2328C13.4496 22.3893 13.4414 22.1362 13.4414 20.0001C13.4414 17.8639 13.4496 17.611 13.488 16.7673C13.5237 15.9873 13.6539 15.5637 13.7634 15.2819C13.8917 14.9343 14.0963 14.62 14.3619 14.3619C14.62 14.0962 14.9343 13.8917 15.2819 13.7635C15.5637 13.6539 15.9873 13.5237 16.7673 13.488C17.6108 13.4496 17.8639 13.4414 20 13.4414H19.9999C22.136 13.4414 22.389 13.4496 23.2327 13.4882C24.0127 13.5237 24.4362 13.6541 24.7181 13.7635C25.0656 13.8918 25.3799 14.0963 25.6379 14.3619C25.9037 14.62 26.1082 14.9343 26.2363 15.2819C26.3459 15.5637 26.4763 15.9873 26.5118 16.7673C26.5503 17.6108 26.5585 17.8639 26.5585 20C26.5585 22.1362 26.5504 22.3892 26.5118 23.2328Z" fill="#004D3D"/>
<path d="M19.9987 15.8916C17.7299 15.8916 15.8906 17.731 15.8906 19.9998C15.8906 22.2686 17.7299 24.1078 19.9987 24.1078C22.2676 24.1078 24.1068 22.2686 24.1068 19.9998C24.1068 17.731 22.2676 15.8916 19.9987 15.8916ZM19.9987 22.6664C18.526 22.6663 17.332 21.4724 17.3322 19.9996C17.3322 18.527 18.526 17.333 19.9988 17.333C21.4716 17.3331 22.6654 18.527 22.6654 19.9996C22.6654 21.4724 21.4714 22.6664 19.9987 22.6664Z" fill="#004D3D"/>
<path d="M25.2325 15.7296C25.2325 16.2598 24.8027 16.6896 24.2726 16.6896C23.7423 16.6896 23.3125 16.2598 23.3125 15.7296C23.3125 15.1993 23.7423 14.7695 24.2726 14.7695C24.8027 14.7695 25.2325 15.1993 25.2325 15.7296Z" fill="#004D3D"/>
</g>
<defs>
<clipPath id="clip0_62_499">
<rect width="16" height="16" fill="white" transform="translate(12 12)"/>
</clipPath>
</defs>
</svg>
